<svg xmlns="http://www.w3.org/2000/svg" width="18" height="18" viewBox="0 0 1000 1000">
  <path fill="#757575" d="M111.91 11.68c-5.36.96-15.5 3.83-22.4 6.32-34.65 13.02-60.3 39.82-73.32 76.76l-5.36 15.31-.57 382.86c-.57 429.38-1.53 399.13 13.59 429.76 14.93 30.82 44.6 54.37 79.06 63.17 14.55 3.83 22.78 3.83 396.83 3.83 423.25 0 395.3.77 423.06-12.83 20.29-9.96 44.41-34.08 54.37-54.37 10.91-22.21 12.83-34.46 12.83-83.27 0-48.05-1.34-55.32-13.02-70.64-5.17-6.89-10.91-11.49-20.29-16.27-11.68-5.93-14.93-6.7-27.76-6.7-18.19.19-32.16 6.32-44.22 19.33-13.78 14.93-15.89 22.21-17.04 57.81l-1.15 31.4-7.08 6.51-7.27 6.51h-350.7c-348.59 0-350.89 0-357.21-3.83-12.63-7.85-11.87 17.8-11.87-364.1 0-332.51.19-347.45 3.45-353.57 1.91-3.64 6.51-8.23 10.15-10.15 6.13-3.25 21.06-3.45 353.57-3.45 378.27 0 356.06-.57 363.53 10.72 2.87 4.4 3.64 10.53 4.4 35.41.96 29.48.96 30.05 7.66 43.07 19.14 37.33 67 44.99 96.86 15.31 16.27-16.46 18-23.35 18-75.61 0-37.14-.57-45.75-3.83-58.39-10.34-40.97-40.39-72.94-81.17-86.72l-15.5-5.36-383.82-.19c-211.16-.17-388.23.41-393.78 1.37z"/>
  <path fill="#757575" d="M726.4 258.05c-13.78 4.98-24.5 12.83-31.2 22.65-10.91 16.46-11.49 21.44-11.49 92.65v64.7l-190.86.38-191.05.57-9 4.21c-12.63 5.74-25.46 18.38-31.59 30.82-4.4 8.81-5.36 13.4-5.36 25.46 0 12.82.77 16.08 6.7 27.76 4.79 9.57 9.38 14.93 16.27 20.29 18.19 13.78 5.55 13.02 215.55 13.02H683.5l.57 69.3.57 69.49 5.36 10.91c5.74 11.87 15.89 22.01 28.52 28.71 6.89 3.64 11.1 4.4 26.42 4.4s19.53-.76 26.8-4.4c12.63-6.7 205.21-199.09 212.1-211.91 4.4-8.23 5.17-11.87 5.17-26.8 0-28.91 3.83-24.12-109.5-137.06-78.87-78.49-101.07-99.54-108.54-102.99-13.17-5.93-31.74-7.08-44.57-2.48z"/>
</svg>
